<?xml version="1.0" standalone="no"?>
<!DOCTYPE svg PUBLIC "-//W3C//DTD SVG 20010904//EN"
 "http://www.w3.org/TR/2001/REC-SVG-20010904/DTD/svg10.dtd">
<svg version="1.0" xmlns="http://www.w3.org/2000/svg"
 width="512.000000pt" height="512.000000pt" viewBox="0 0 512.000000 512.000000"
 preserveAspectRatio="xMidYMid meet">

<g transform="translate(0.000000,512.000000) scale(0.100000,-0.100000)"
fill="#000000" stroke="none">
<path d="M910 4674 c-177 -46 -335 -175 -415 -339 -70 -141 -66 -20 -63 -1801
l3 -1609 26 -67 c38 -98 86 -172 155 -242 70 -69 144 -117 242 -155 l67 -26
1178 -3 c1311 -3 1241 -6 1387 66 110 54 223 168 279 282 66 135 71 174 71
589 0 259 -4 375 -12 405 -17 57 -82 119 -141 135 -95 27 -195 -13 -244 -97
l-28 -47 -5 -387 -5 -386 -30 -44 c-17 -23 -51 -54 -75 -68 l-45 -25 -1090 -3
c-803 -2 -1104 0 -1144 8 -71 16 -142 83 -159 152 -9 35 -12 432 -12 1551 0
1696 -6 1574 76 1646 32 28 61 43 97 51 37 8 368 10 1142 8 1042 -3 1092 -4
1125 -22 46 -24 78 -54 98 -91 15 -26 18 -82 22 -415 l5 -385 28 -47 c49 -84
149 -124 244 -97 59 16 124 78 141 135 19 64 16 746 -3 839 -49 233 -245 435
-475 489 -95 23 -2355 23 -2440 0z"/>
<path d="M3965 3181 c-74 -34 -125 -111 -125 -187 0 -63 22 -115 73 -170 l49
-54 -729 0 -730 0 -44 -23 c-24 -13 -57 -43 -74 -66 -27 -39 -30 -50 -30 -120
0 -68 3 -82 27 -117 15 -21 44 -50 65 -64 l37 -25 739 -3 739 -2 -49 -54 c-73
-79 -92 -169 -54 -251 34 -74 111 -125 187 -125 92 0 105 10 362 264 153 152
250 256 262 281 26 54 26 136 0 190 -12 25 -109 129 -262 281 -201 198 -250
242 -284 252 -59 17 -113 14 -159 -7z"/>
</g>
</svg>
